<svg width="30" height="30" viewBox="0 0 30 30" fill="none" xmlns="http://www.w3.org/2000/svg">
<path d="M17.028 4.16372L17.0282 4.1636C17.6979 3.45941 18.4912 2.90275 19.3617 2.52365C20.2322 2.14459 21.1638 1.95 22.1038 1.95C23.0438 1.95 23.9755 2.14459 24.8459 2.52365C25.7165 2.90275 26.5098 3.45941 27.1795 4.1636L27.1797 4.16384C27.8498 4.86778 28.3831 5.70544 28.7476 6.62981C29.112 7.55423 29.3 8.54618 29.3 9.54869C29.3 10.5512 29.112 11.5431 28.7476 12.4676C28.3831 13.3919 27.8498 14.2296 27.1797 14.9335L27.1796 14.9337L25.6583 16.5325L14.9996 27.7345L4.34094 16.5325L2.81963 14.9337C1.46612 13.5111 0.7 11.5747 0.7 9.54869C0.7 7.52268 1.46612 5.58624 2.81963 4.16372C4.17202 2.74239 5.99862 1.95081 7.89541 1.95081C9.79221 1.95081 11.6188 2.74239 12.9712 4.16372L14.4925 5.76258C14.6246 5.90144 14.8079 5.98005 14.9996 5.98005C15.1913 5.98005 15.3746 5.90144 15.5067 5.76258L17.028 4.16372Z" stroke="black" stroke-width="1.4" stroke-linecap="round" stroke-linejoin="round"/>
</svg>
