<svg width="200" height="32" viewBox="0 0 200 32" fill="none" xmlns="http://www.w3.org/2000/svg">
<g opacity="0.4">
<rect x="0.5" y="0.5" width="31" height="31" rx="3.5" stroke="white"/>
<path d="M21.25 7H18.3864C17.1206 7 15.9066 7.47411 15.0115 8.31802C14.1165 9.16193 13.6136 10.3065 13.6136 11.5V14.2H10.75V17.8H13.6136V25H17.4318V17.8H20.2955L21.25 14.2H17.4318V11.5C17.4318 11.2613 17.5324 11.0324 17.7114 10.8636C17.8904 10.6948 18.1332 10.6 18.3864 10.6H21.25V7Z" fill="white"/>
</g>
<g opacity="0.4">
<rect x="168.5" y="0.5" width="31" height="31" rx="3.5" stroke="white"/>
<g clip-path="url(#clip0_7237_9162)">
<path fill-rule="evenodd" clip-rule="evenodd" d="M192.049 10.2062C192.328 10.4958 192.526 10.8544 192.623 11.2458C192.883 12.6962 193.009 14.1677 193 15.6415C193.005 17.0933 192.879 18.5425 192.623 19.9712C192.526 20.3626 192.328 20.7212 192.049 21.0108C191.771 21.3004 191.421 21.5108 191.036 21.6206C189.629 22 184 22 184 22C184 22 178.371 22 176.964 21.6206C176.587 21.5166 176.242 21.3162 175.964 21.0388C175.686 20.7614 175.484 20.4164 175.377 20.0372C175.117 18.5868 174.991 17.1153 175 15.6415C174.993 14.1787 175.119 12.7184 175.377 11.2788C175.474 10.8874 175.672 10.5288 175.951 10.2392C176.229 9.94955 176.579 9.7392 176.964 9.62937C178.371 9.25 184 9.25 184 9.25C184 9.25 189.629 9.25 191.036 9.59638C191.421 9.70622 191.771 9.91656 192.049 10.2062ZM186.61 15.6559L182.298 18.1084V13.2034L186.61 15.6559Z" fill="white"/>
</g>
</g>
<g opacity="0.4">
<rect x="42.5" y="0.5" width="31" height="31" rx="3.5" stroke="white"/>
<path d="M67 8.50841C66.2165 9.07307 65.349 9.50495 64.4309 9.78741C63.9382 9.20852 63.2833 8.79822 62.5548 8.612C61.8264 8.42578 61.0596 8.47262 60.3581 8.74619C59.6565 9.01977 59.0542 9.50686 58.6324 10.1416C58.2107 10.7764 57.9899 11.5281 58 12.2953V13.1312C56.5622 13.1693 55.1374 12.8435 53.8526 12.1828C52.5679 11.5221 51.463 10.547 50.6364 9.34435C50.6364 9.34435 47.3636 16.8679 54.7273 20.2117C53.0422 21.3803 51.0349 21.9663 49 21.8836C56.3636 26.0633 65.3636 21.8836 65.3636 12.2702C65.3629 12.0373 65.341 11.805 65.2982 11.5763C66.1332 10.735 66.7225 9.67264 67 8.50841Z" fill="white"/>
</g>
<g opacity="0.4">
<rect x="84.5" y="0.5" width="31" height="31" rx="3.5" stroke="white"/>
<path d="M106.75 15.125V12.875H105.625V15.125H103.375V16.25H105.625V18.5H106.75V16.25H109V15.125H106.75Z" fill="white"/>
<path d="M96.5 15.4V17.6H99.6119C99.1576 18.8804 97.9344 19.8 96.5 19.8C94.6806 19.8 93.2 18.3194 93.2 16.5C93.2 14.6806 94.6806 13.2 96.5 13.2C97.2887 13.2 98.0477 13.4827 98.6373 13.9964L100.083 12.3376C99.0927 11.4752 97.8211 11 96.5 11C93.4673 11 91 13.4673 91 16.5C91 19.5327 93.4673 22 96.5 22C99.5327 22 102 19.5327 102 16.5V15.4H96.5Z" fill="white"/>
</g>
<g opacity="0.4">
<rect x="126.5" y="0.5" width="31" height="31" rx="3.5" stroke="white"/>
<g clip-path="url(#clip1_7237_9162)">
<path d="M146.294 10.9038C145.853 10.9038 145.494 11.262 145.494 11.7038C145.494 12.1457 145.853 12.5038 146.294 12.5038H146.302C146.744 12.5038 147.102 12.1457 147.102 11.7038C147.102 11.262 146.744 10.9038 146.302 10.9038H146.294Z" fill="white"/>
<path fill-rule="evenodd" clip-rule="evenodd" d="M142.608 12.0842C141.791 11.9631 140.957 12.1026 140.224 12.4828C139.492 12.863 138.898 13.4645 138.526 14.2019C138.155 14.9392 138.026 15.7748 138.157 16.5898C138.288 17.4048 138.673 18.1577 139.257 18.7414C139.841 19.3251 140.593 19.7099 141.408 19.8411C142.223 19.9722 143.059 19.843 143.796 19.4719C144.534 19.1008 145.135 18.5066 145.516 17.7739C145.896 17.0412 146.035 16.2072 145.914 15.3907C145.791 14.5577 145.402 13.7866 144.807 13.1912C144.212 12.5958 143.441 12.2077 142.608 12.0842ZM140.961 13.903C141.395 13.6778 141.889 13.5952 142.373 13.6669C142.866 13.7401 143.323 13.9699 143.676 14.3226C144.028 14.6753 144.258 15.132 144.331 15.6254C144.403 16.109 144.321 16.603 144.095 17.037C143.87 17.471 143.514 17.8229 143.077 18.0427C142.64 18.2626 142.145 18.3391 141.663 18.2614C141.18 18.1837 140.734 17.9558 140.388 17.6101C140.043 17.2643 139.815 16.8184 139.737 16.3356C139.659 15.8529 139.736 15.358 139.956 14.9212C140.175 14.4845 140.527 14.1282 140.961 13.903Z" fill="white"/>
<path fill-rule="evenodd" clip-rule="evenodd" d="M133.387 12.0944C133.387 9.4955 135.494 7.38867 138.092 7.38867H145.904C148.503 7.38867 150.61 9.4955 150.61 12.0944V19.9058C150.61 20.8549 150.329 21.7384 149.845 22.4776C149.827 22.6237 149.735 22.7468 149.608 22.8084C148.747 23.9062 147.408 24.6116 145.904 24.6116H138.092C135.494 24.6116 133.387 22.5047 133.387 19.9058V12.0944ZM138.092 8.98867C136.377 8.98867 134.987 10.3792 134.987 12.0944V19.9058C134.987 21.6211 136.377 23.0116 138.092 23.0116H145.904C147.619 23.0116 149.01 21.6211 149.01 19.9058V12.0944C149.01 10.3792 147.619 8.98867 145.904 8.98867H138.092Z" fill="white"/>
</g>
</g>
<defs>
<clipPath id="clip0_7237_9162">
<rect width="18" height="18" fill="white" transform="translate(175 7)"/>
</clipPath>
<clipPath id="clip1_7237_9162">
<rect width="18" height="18" fill="white" transform="translate(133 7)"/>
</clipPath>
</defs>
</svg>
